<svg xmlns="http://www.w3.org/2000/svg" width="20" height="20" viewBox="0 0 20 20" fill="none">
  <path d="M10 2.5C5.85786 2.5 2.5 5.85786 2.5 10C2.5 14.1421 5.85786 17.5 10 17.5C14.1421 17.5 17.5 14.1421 17.5 10C17.5 5.85786 14.1421 2.5 10 2.5ZM15.7667 9.16667H13.625C13.5786 7.66442 13.2448 6.18498 12.6417 4.80833C14.329 5.66779 15.4941 7.29279 15.7667 9.16667ZM10.375 15.8333H10H9.625C8.86667 15.3583 7.95833 13.5333 7.84167 10.8333H12.1583C12.0083 13.5167 11.1333 15.3417 10.375 15.8333ZM7.875 9.16667C8.025 6.48333 8.9 4.65833 9.65833 4.16667H10H10.375C11.1333 4.64167 12.0417 6.46667 12.1583 9.16667H7.875ZM7.35833 4.80833C6.75522 6.18498 6.42142 7.66442 6.375 9.16667H4.23333C4.50586 7.29279 5.67102 5.66779 7.35833 4.80833ZM4.23333 10.8333H6.375C6.42142 12.3356 6.75522 13.815 7.35833 15.1917C5.67102 14.3322 4.50586 12.7072 4.23333 10.8333ZM12.6417 15.1917C13.2448 13.815 13.5786 12.3356 13.625 10.8333H15.7667C15.4941 12.7072 14.329 14.3322 12.6417 15.1917Z" fill="#707070"/>
</svg>