<svg width="14" height="13" viewBox="0 0 14 13" fill="none" xmlns="http://www.w3.org/2000/svg">
<path d="M8.25694 11.8123H10.9042V7.09083C10.9042 6.90074 11.0585 6.74705 11.2486 6.74705H12.2048L6.69308 1.32361L1.18139 6.74705H2.1376C2.32769 6.74705 2.48139 6.90085 2.48139 7.09083V11.8123H5.12868V8.19142C5.12868 8.00133 5.28248 7.84763 5.47246 7.84763H7.91321C8.1033 7.84763 8.25699 8.00143 8.25699 8.19142V11.8123H8.25694ZM11.248 12.5H7.91321C7.72312 12.5 7.56943 12.3462 7.56943 12.1562V8.53531H5.81635V12.1562C5.81635 12.3463 5.66255 12.5 5.47257 12.5H2.13774C1.94765 12.5 1.79396 12.3462 1.79396 12.1562V7.43472H0.342943V7.43376C0.254355 7.43376 0.165767 7.39982 0.0983137 7.3314C-0.0343554 7.19649 -0.0325412 6.97929 0.102476 6.84663L6.45272 0.598301C6.58582 0.467446 6.7997 0.46702 6.93375 0.598301L13.2657 6.82832C13.3401 6.89172 13.3874 6.98575 13.3874 7.09089C13.3874 7.28098 13.2336 7.43467 13.0436 7.43467H11.5926V12.1562C11.5926 12.3463 11.4383 12.4999 11.2488 12.4999L11.248 12.5Z" fill="black"/>
</svg>
