<svg width="24" height="24" viewBox="0 0 24 24" fill="none" xmlns="http://www.w3.org/2000/svg">
<g clip-path="url(#clip0_3032_221012)">
<path d="M19.9999 4.49005L18.5399 4.34005C14.1715 3.89007 9.76835 3.89007 5.39991 4.34005L3.99991 4.49005C2.27143 4.68541 0.973464 6.16076 0.999909 7.90005V16.1C0.973464 17.8393 2.27143 19.3147 3.99991 19.51L5.45991 19.66C9.82835 20.11 14.2315 20.11 18.5999 19.66L19.9999 19.51C21.7284 19.3147 23.0264 17.8393 22.9999 16.1V7.90005C23.0264 6.16076 21.7284 4.68541 19.9999 4.49005ZM14.9999 12.62L11.1099 15.22C10.8834 15.3444 10.6088 15.3434 10.3832 15.2174C10.1576 15.0914 10.0128 14.8581 9.99991 14.6V9.40005C10.0004 9.12284 10.1538 8.86851 10.3987 8.73871C10.6437 8.60891 10.9402 8.62481 11.1699 8.78005L15.0599 11.38C15.2695 11.5166 15.3959 11.7499 15.3959 12C15.3959 12.2502 15.2695 12.4835 15.0599 12.62H14.9999Z" fill="#949494"/>
</g>
<defs>
<clipPath id="clip0_3032_221012">
<rect width="24" height="24" fill="white"/>
</clipPath>
</defs>
</svg>
