<svg width="24" height="24" viewBox="0 0 24 24" fill="none" xmlns="http://www.w3.org/2000/svg">
<path d="M21 7.48001V9.48001C20.9993 9.54922 20.9848 9.61761 20.9573 9.68114C20.9298 9.74468 20.89 9.80209 20.84 9.85001C20.79 9.89502 20.7315 9.92968 20.668 9.95199C20.6045 9.9743 20.5372 9.98382 20.47 9.98001C18.8358 9.87665 17.274 9.26869 16 8.24001V16C16 17.1867 15.6481 18.3467 14.9888 19.3334C14.3295 20.3201 13.3925 21.0892 12.2961 21.5433C11.1997 21.9974 9.99335 22.1162 8.82946 21.8847C7.66558 21.6532 6.59648 21.0818 5.75736 20.2426C4.91825 19.4035 4.3468 18.3344 4.11529 17.1705C3.88378 16.0067 4.0026 14.8003 4.45673 13.7039C4.91085 12.6075 5.67989 11.6705 6.66658 11.0112C7.65328 10.3519 8.81331 10 10 10C10.1832 9.99006 10.3668 9.99006 10.55 10C10.6729 10.0101 10.7875 10.0661 10.8709 10.1569C10.9543 10.2478 11.0004 10.3667 11 10.49V12.49C11.0005 12.5604 10.9856 12.63 10.9562 12.6939C10.9268 12.7579 10.8837 12.8146 10.83 12.86C10.7763 12.9082 10.7126 12.944 10.6434 12.9648C10.5743 12.9855 10.5014 12.9907 10.43 12.98C10.2864 12.9767 10.1427 12.9834 10 13C9.40666 13 8.82664 13.176 8.33329 13.5056C7.83994 13.8352 7.45543 14.3038 7.22836 14.852C7.0013 15.4001 6.94189 16.0033 7.05765 16.5853C7.1734 17.1672 7.45913 17.7018 7.87868 18.1213C8.29824 18.5409 8.83279 18.8266 9.41473 18.9424C9.99668 19.0581 10.5999 18.9987 11.1481 18.7716C11.6962 18.5446 12.1648 18.1601 12.4944 17.6667C12.8241 17.1734 13 16.5934 13 16V2.50001C13 2.3674 13.0527 2.24022 13.1464 2.14645C13.2402 2.05268 13.3674 2.00001 13.5 2.00001H15.5C15.6244 1.99938 15.7445 2.04514 15.837 2.12835C15.9294 2.21156 15.9876 2.32624 16 2.45001C16.1015 3.62266 16.6135 4.72189 17.4458 5.55418C18.2781 6.38647 19.3774 6.89846 20.55 7.00001C20.6704 7.01203 20.7823 7.0673 20.8651 7.15556C20.9478 7.24382 20.9958 7.3591 21 7.48001V7.48001Z" fill="#949494"/>
</svg>
