<svg width="24" height="24" viewBox="0 0 24 24" fill="none" xmlns="http://www.w3.org/2000/svg">
<path d="M12.0023 2C6.47822 2 2 6.47718 2 12C2 16.2365 4.63644 19.8581 8.35722 21.3152C8.26982 20.524 8.19078 19.3072 8.39191 18.4435C8.57368 17.663 9.5648 13.4728 9.5648 13.4728C9.5648 13.4728 9.26561 12.8737 9.26561 11.9881C9.26561 10.5976 10.0718 9.55951 11.0755 9.55951C11.9289 9.55951 12.341 10.2 12.341 10.9681C12.341 11.8261 11.7946 13.1089 11.5127 14.2977C11.277 15.293 12.0119 16.1047 12.9939 16.1047C14.7716 16.1047 16.1381 14.2306 16.1381 11.5255C16.1381 9.13112 14.4173 7.45708 11.9601 7.45708C9.11409 7.45708 7.44359 9.59124 7.44359 11.7968C7.44359 12.6563 7.77475 13.5779 8.18799 14.0789C8.26974 14.1779 8.28171 14.2647 8.25736 14.3657C8.18143 14.6816 8.01269 15.3608 7.97957 15.4998C7.93595 15.6829 7.83461 15.7217 7.64504 15.6335C6.39582 15.0522 5.61477 13.2261 5.61477 11.7595C5.61477 8.60502 7.90725 5.70803 12.2237 5.70803C15.6935 5.70803 18.39 8.18 18.39 11.4836C18.39 14.9299 16.2165 17.7036 13.1997 17.7036C12.1861 17.7036 11.2332 17.1771 10.9071 16.5553C10.9071 16.5553 10.4055 18.4646 10.2839 18.9325C10.0581 19.8011 9.44853 20.8898 9.04079 21.5541C9.97664 21.8438 10.9712 22 12.0023 22C17.5265 22 22.0047 17.5228 22.0047 12C22.0047 6.47718 17.5265 2 12.0023 2Z" fill="#949494"/>
</svg>
